<svg id="图层_1" data-name="图层 1" xmlns="http://www.w3.org/2000/svg" viewBox="0 0 153.76 30"><defs><style>.cls-1{fill:#040000;}.cls-2{fill:#e9533b;}.cls-2,.cls-3,.cls-4,.cls-5,.cls-6{fill-rule:evenodd;}.cls-3{fill:#35a04f;}.cls-4{fill:#efb718;}.cls-5{fill:#3b6fb5;}.cls-6{fill:#dd4032;}</style></defs><path class="cls-1" d="M8.07,29.53a32.35,32.35,0,0,1-6-2.61C0,25.84-.46,24.3.4,22.94s2.44-1.33,4.33-.05c2.83,1.92,5.87,2.95,9.34,2.09a3.5,3.5,0,0,0,3-3.23C17.21,20,16,19,14.5,18.41c-1.8-.64-3.69-1.05-5.52-1.61a32,32,0,0,1-3.47-1.28A6.93,6.93,0,0,1,1,9.2,7.94,7.94,0,0,1,5.05,1.41C9-1,16.62-.24,20.11,2.77a2.29,2.29,0,0,1,.57,3.29c-.84,1.24-2,1.22-3.3.7-1.64-.68-3.27-1.38-4.94-2a5.31,5.31,0,0,0-1.83-.19c-2.55,0-4.23,1.21-4.49,3.09s.71,3,3.24,3.88c2.28.76,4.65,1.23,6.89,2.06,4.38,1.63,6.11,4.05,5.92,7.92-.19,4-2.35,6.61-6.64,7.89a1.07,1.07,0,0,1-.19.07A13.65,13.65,0,0,1,8.07,29.53Z"/><path class="cls-1" d="M49.82.42A2.52,2.52,0,0,0,47.3,3v9.46h-14V3a2.52,2.52,0,1,0-5,0v24a2.52,2.52,0,1,0,5,0V17h14v10a2.52,2.52,0,1,0,5,0V3A2.52,2.52,0,0,0,49.82.42Z"/><path class="cls-1" d="M73.83,0A15.07,15.07,0,0,0,58.62,15,15.21,15.21,0,0,0,89,15,15.07,15.07,0,0,0,73.83,0Zm0,25A10,10,0,0,1,64,15a9.85,9.85,0,1,1,19.69,0A10,10,0,0,1,73.83,25.06Z"/><path class="cls-1" d="M117.68,10.14A9.66,9.66,0,0,0,108.4.43H97.19a2.07,2.07,0,0,0-2.06,2.07V26.77a2.55,2.55,0,0,0,2.54,2.55h0a2.55,2.55,0,0,0,2.54-2.55V19.85h8.18A9.66,9.66,0,0,0,117.68,10.14Zm-9.32,5.17h-8.14V5h8.13a5.4,5.4,0,0,1,0,10.34Z"/><path class="cls-2" d="M137.38,18.71l4.23,9.67,1.83-4.18c-1.5-7.1-1.89-15,1.85-23.57"/><path class="cls-3" d="M144.27,22.3,153.76.63h-8.47c-2.47,6.76-2.07,13.46-1,21.67"/><path class="cls-4" d="M141.07,29.6H132.6c1-9-.1-19-3.38-27.06"/><path class="cls-5" d="M131.8,27.75l-4.52-10.31C128.7,12,128.72,5.55,128.44.76c2.54,5.92,4.32,18.12,3.36,27"/><path class="cls-6" d="M126.31,15.24,119.92.63h8.46c.2,4.81-1.29,11.64-2.07,14.61"/></svg>